<svg width="24" height="26" viewBox="0 0 24 26" fill="none" xmlns="http://www.w3.org/2000/svg">
<path d="M3.11877 19.9624L2.32109 19.3593H2.32109L3.11877 19.9624ZM4.42712 16.235L3.42712 16.2228V16.235H4.42712ZM4.45458 13.9814L5.45458 13.9936V13.9814H4.45458ZM20.8882 19.9805L21.6978 19.3935L21.6978 19.3935L20.8882 19.9805ZM19.6291 16.235L18.6291 16.2222V16.235H19.6291ZM19.6566 14.0931L20.6566 14.1059V14.0931H19.6566ZM3.91645 20.5655C4.67079 19.5677 5.42712 18.0695 5.42712 16.235H3.42712C3.42712 17.5111 2.89827 18.5959 2.32109 19.3593L3.91645 20.5655ZM5.42705 16.2472L5.45451 13.9936L3.45466 13.9692L3.4272 16.2228L5.42705 16.2472ZM21.6978 19.3935C21.1452 18.6312 20.6291 17.5338 20.6291 16.235H18.6291C18.6291 18.0681 19.3539 19.5679 20.0786 20.5675L21.6978 19.3935ZM20.629 16.2478L20.6565 14.1059L18.6566 14.0802L18.6292 16.2222L20.629 16.2478ZM20.6566 14.0931C20.6566 9.29649 16.7854 5.39998 12 5.39998V7.39998C15.6718 7.39998 18.6566 10.3921 18.6566 14.0931H20.6566ZM20.43 22.025C21.1898 22.025 21.6667 21.4894 21.859 21.0355C22.0507 20.583 22.0897 19.9341 21.6978 19.3935L20.0786 20.5675C19.9625 20.4074 20.0067 20.2806 20.0174 20.2553C20.0288 20.2285 20.1387 20.025 20.43 20.025V22.025ZM5.45458 13.9814C5.45458 10.3421 8.38955 7.39998 12 7.39998V5.39998C7.27602 5.39998 3.45458 9.24649 3.45458 13.9814H5.45458ZM3.57109 20.025C3.70569 20.025 3.81669 20.0768 3.88642 20.1328C3.94916 20.1833 3.97456 20.2319 3.98443 20.2559C3.99471 20.281 4.00238 20.3132 3.99933 20.3574C3.99613 20.4038 3.97867 20.4832 3.91645 20.5655L2.32109 19.3593C1.91184 19.9006 1.94716 20.5601 2.13451 21.016C2.32215 21.4727 2.79869 22.025 3.57109 22.025V20.025ZM20.43 20.025H3.57109V22.025H20.43V20.025ZM14.6 21.025C14.6 22.2768 13.4977 23.4 12 23.4V25.4C14.4787 25.4 16.6 23.501 16.6 21.025H14.6ZM12 23.4C10.5023 23.4 9.4 22.2768 9.4 21.025H7.4C7.4 23.501 9.52126 25.4 12 25.4V23.4ZM13.4 3.99998C13.4 4.77318 12.7732 5.39998 12 5.39998V7.39998C13.8778 7.39998 15.4 5.87774 15.4 3.99998H13.4ZM12 5.39998C11.2268 5.39998 10.6 4.77318 10.6 3.99998H8.6C8.6 5.87774 10.1222 7.39998 12 7.39998V5.39998ZM10.6 3.99998C10.6 3.22678 11.2268 2.59998 12 2.59998V0.599976C10.1222 0.599976 8.6 2.12221 8.6 3.99998H10.6ZM12 2.59998C12.7732 2.59998 13.4 3.22678 13.4 3.99998H15.4C15.4 2.12221 13.8778 0.599976 12 0.599976V2.59998Z" fill="#606060"/>
</svg>
