<svg width="24" height="19" viewBox="0 0 24 19" fill="none" xmlns="http://www.w3.org/2000/svg">
<path d="M8.70282 10.8785C8.70282 12.4784 10.0039 13.7795 11.6038 13.7795C13.2036 13.7795 14.5047 12.4784 14.5047 10.8785C14.5047 9.27866 13.2036 7.97758 11.6038 7.97758C10.0039 7.97758 8.70282 9.27866 8.70282 10.8785ZM21.757 2.90094H16.6804C16.3178 1.45047 15.9552 0 14.5047 0H8.70282C7.25235 0 6.88973 1.45047 6.52711 2.90094H1.45047C0.652711 2.90094 0 3.55365 0 4.35141V17.4056C0 18.2034 0.652711 18.8561 1.45047 18.8561H21.757C22.5548 18.8561 23.2075 18.2034 23.2075 17.4056V4.35141C23.2075 3.55365 22.5548 2.90094 21.757 2.90094ZM11.6038 16.6804C8.39967 16.6804 5.80188 14.0826 5.80188 10.8785C5.80188 7.67444 8.39967 5.07664 11.6038 5.07664C14.8078 5.07664 17.4056 7.67444 17.4056 10.8785C17.4056 14.0826 14.8078 16.6804 11.6038 16.6804Z" fill="white"/>
</svg>
