<svg width="17" height="17" viewBox="0 0 25 25" fill="none" xmlns="http://www.w3.org/2000/svg">
<path d="M12.4428 14.9314C12.1352 14.9314 11.8345 15.0226 11.5787 15.1935C11.3229 15.3644 11.1236 15.6073 11.0059 15.8915C10.8881 16.1757 10.8573 16.4884 10.9173 16.7902C10.9774 17.0919 11.1255 17.369 11.343 17.5865C11.5605 17.804 11.8377 17.9522 12.1394 18.0122C12.4411 18.0722 12.7538 18.0414 13.038 17.9237C13.3222 17.806 13.5651 17.6066 13.736 17.3508C13.9069 17.095 13.9982 16.7943 13.9982 16.4867C13.9982 16.0742 13.8343 15.6786 13.5426 15.3869C13.2509 15.0952 12.8553 14.9314 12.4428 14.9314ZM12.4428 13.0649C12.7728 13.0649 13.0893 12.9339 13.3227 12.7005C13.556 12.4672 13.6871 12.1507 13.6871 11.8207V8.08782C13.6871 7.75782 13.556 7.44133 13.3227 7.20799C13.0893 6.97464 12.7728 6.84354 12.4428 6.84354C12.1128 6.84354 11.7963 6.97464 11.563 7.20799C11.3296 7.44133 11.1985 7.75782 11.1985 8.08782V11.8207C11.1985 12.1507 11.3296 12.4672 11.563 12.7005C11.7963 12.9339 12.1128 13.0649 12.4428 13.0649ZM12.4428 0C9.98186 0 7.57617 0.729758 5.52996 2.09699C3.48375 3.46422 1.88892 5.40752 0.947158 7.68115C0.00539127 9.95478 -0.241018 12.4566 0.239091 14.8703C0.719199 17.2839 1.90426 19.501 3.64442 21.2412C5.38458 22.9814 7.60167 24.1664 10.0153 24.6465C12.429 25.1266 14.9308 24.8802 17.2045 23.9385C19.4781 22.9967 21.4214 21.4019 22.7886 19.3557C24.1559 17.3095 24.8856 14.9038 24.8856 12.4428C24.882 9.1439 23.5698 5.98115 21.2372 3.64847C18.9045 1.31578 15.7417 0.00366886 12.4428 0ZM12.4428 22.3971C10.474 22.3971 8.5495 21.8132 6.91253 20.7195C5.27556 19.6257 3.9997 18.071 3.24629 16.2521C2.49288 14.4332 2.29575 12.4318 2.67984 10.5008C3.06392 8.5699 4.01197 6.79622 5.4041 5.40409C6.79622 4.01197 8.5699 3.06392 10.5008 2.67983C12.4318 2.29574 14.4332 2.49287 16.2521 3.24628C18.071 3.9997 19.6257 5.27556 20.7195 6.91252C21.8132 8.54949 22.3971 10.474 22.3971 12.4428C22.394 15.0819 21.3443 17.6121 19.4782 19.4782C17.6121 21.3443 15.0819 22.394 12.4428 22.3971Z" fill="#FE4949"/>
</svg>
