<svg width="24" height="24" viewBox="0 0 24 24" fill="#606060" xmlns="http://www.w3.org/2000/svg">
<path d="M21 13C21.5523 13 22 12.5523 22 12C22 11.4477 21.5523 11 21 11V13ZM20.6 12C20.6 16.7497 16.7496 20.6 12 20.6V22.6C17.8542 22.6 22.6 17.8542 22.6 12H20.6ZM12 20.6C7.25034 20.6 3.39999 16.7497 3.39999 12H1.39999C1.39999 17.8542 6.14577 22.6 12 22.6V20.6ZM3.39999 12C3.39999 7.25037 7.25034 3.40002 12 3.40002V1.40002C6.14577 1.40002 1.39999 6.14581 1.39999 12H3.39999ZM12 3.40002C16.7496 3.40002 20.6 7.25037 20.6 12H22.6C22.6 6.14581 17.8542 1.40002 12 1.40002V3.40002ZM12 20.6C11.751 20.6 11.4349 20.4889 11.0602 20.1267C10.6808 19.7598 10.2933 19.1807 9.9463 18.3874C9.25353 16.8039 8.79999 14.5464 8.79999 12H6.79999C6.79999 14.7556 7.28666 17.298 8.11399 19.1891C8.527 20.1331 9.04461 20.9598 9.6701 21.5646C10.3004 22.1739 11.0892 22.6 12 22.6V20.6ZM8.79999 12C8.79999 9.45362 9.25353 7.19611 9.9463 5.61262C10.2933 4.81939 10.6808 4.24025 11.0602 3.87339C11.4349 3.51118 11.751 3.40002 12 3.40002V1.40002C11.0892 1.40002 10.3004 1.82613 9.6701 2.43549C9.04461 3.0402 8.527 3.86695 8.11399 4.81098C7.28666 6.70201 6.79999 9.24449 6.79999 12H8.79999ZM12 22.6C12.9108 22.6 13.6996 22.1739 14.3299 21.5646C14.9554 20.9598 15.473 20.1331 15.886 19.1891C16.7133 17.298 17.2 14.7556 17.2 12H15.2C15.2 14.5464 14.7465 16.8039 14.0537 18.3874C13.7066 19.1807 13.3192 19.7598 12.9398 20.1267C12.5651 20.4889 12.249 20.6 12 20.6V22.6ZM17.2 12C17.2 9.24449 16.7133 6.70201 15.886 4.81098C15.473 3.86695 14.9554 3.0402 14.3299 2.43549C13.6996 1.82613 12.9108 1.40002 12 1.40002V3.40002C12.249 3.40002 12.5651 3.51118 12.9398 3.87339C13.3192 4.24025 13.7066 4.81939 14.0537 5.61262C14.7465 7.19611 15.2 9.45362 15.2 12H17.2ZM2.39999 13L21 13V11L2.39999 11L2.39999 13Z" fill="inherit"/>
</svg>
