<svg width="129" height="82" viewBox="0 0 129 82" fill="none" xmlns="http://www.w3.org/2000/svg">
<rect width="129" height="82" rx="3.75" fill="#E9E8EE"/>
<rect x="8.6001" y="55.5779" width="111.8" height="3.64444" rx="1" fill="#C6C2D4"/>
<rect x="8.6001" y="66.5112" width="111.8" height="3.64444" rx="1" fill="#C6C2D4"/>
<rect x="81.7002" y="11.8445" width="1.72" height="13.6667" rx="0.5" fill="#C6C2D4"/>
<rect x="85.1401" y="11.8445" width="1.72" height="13.6667" rx="0.5" fill="#C6C2D4"/>
<rect x="88.5801" y="11.8445" width="1.72" height="13.6667" rx="0.5" fill="#C6C2D4"/>
<rect x="92.02" y="11.8445" width="1.72" height="13.6667" rx="0.5" fill="#C6C2D4"/>
<rect x="95.46" y="11.8445" width="1.72" height="13.6667" rx="0.5" fill="#C6C2D4"/>
<rect x="98.8999" y="11.8445" width="1.72" height="13.6667" rx="0.5" fill="#C6C2D4"/>
<rect x="112.66" y="11.8445" width="1.72" height="13.6667" rx="0.5" fill="#C6C2D4"/>
<rect x="102.34" y="11.8445" width="1.72" height="13.6667" rx="0.5" fill="#C6C2D4"/>
<rect x="105.78" y="11.8445" width="1.72" height="13.6667" rx="0.5" fill="#C6C2D4"/>
<rect x="109.22" y="11.8445" width="1.72" height="13.6667" rx="0.5" fill="#C6C2D4"/>
<rect x="116.1" y="11.8445" width="1.72" height="13.6667" rx="0.5" fill="#C6C2D4"/>
<rect x="119.54" y="11.8445" width="1.72" height="13.6667" rx="0.5" fill="#C6C2D4"/>
<rect x="8.6001" y="11.8445" width="60.2" height="5.46667" rx="1" fill="#C6C2D4"/>
<rect x="8.6001" y="24.5999" width="60.2" height="5.46667" rx="1" fill="#C6C2D4"/>
</svg>
