<svg width="165" height="107" viewBox="0 0 165 107" fill="none" xmlns="http://www.w3.org/2000/svg">
<path d="M31.5625 106C14.6833 106 1 97.1857 1 86.3126V20.6874C1 9.81435 14.6833 1 31.5625 1H133.438C150.317 1 164 9.81435 164 20.6874V86.3126C164 97.1857 150.317 106 133.438 106H31.5625Z" stroke="#D174CB" strokeWidth="2"/>
<rect x="18" y="12" width="129" height="82" rx="3.75" fill="#E9E8EE"/>
<rect x="26.6001" y="67.5779" width="111.8" height="3.64444" rx="1" fill="#C6C2D4"/>
<rect x="26.6001" y="78.5112" width="111.8" height="3.64444" rx="1" fill="#C6C2D4"/>
<rect x="99.7002" y="23.8445" width="1.72" height="13.6667" rx="0.5" fill="#C6C2D4"/>
<rect x="103.14" y="23.8445" width="1.72" height="13.6667" rx="0.5" fill="#C6C2D4"/>
<rect x="106.58" y="23.8445" width="1.72" height="13.6667" rx="0.5" fill="#C6C2D4"/>
<rect x="110.02" y="23.8445" width="1.72" height="13.6667" rx="0.5" fill="#C6C2D4"/>
<rect x="113.46" y="23.8445" width="1.72" height="13.6667" rx="0.5" fill="#C6C2D4"/>
<rect x="116.9" y="23.8445" width="1.72" height="13.6667" rx="0.5" fill="#C6C2D4"/>
<rect x="130.66" y="23.8445" width="1.72" height="13.6667" rx="0.5" fill="#C6C2D4"/>
<rect x="120.34" y="23.8445" width="1.72" height="13.6667" rx="0.5" fill="#C6C2D4"/>
<rect x="123.78" y="23.8445" width="1.72" height="13.6667" rx="0.5" fill="#C6C2D4"/>
<rect x="127.22" y="23.8445" width="1.72" height="13.6667" rx="0.5" fill="#C6C2D4"/>
<rect x="134.1" y="23.8445" width="1.72" height="13.6667" rx="0.5" fill="#C6C2D4"/>
<rect x="137.54" y="23.8445" width="1.72" height="13.6667" rx="0.5" fill="#C6C2D4"/>
<rect x="26.6001" y="23.8445" width="60.2" height="5.46667" rx="1" fill="#C6C2D4"/>
<rect x="26.6001" y="36.5999" width="60.2" height="5.46667" rx="1" fill="#C6C2D4"/>
</svg>
