<svg width="132" height="82" viewBox="0 0 132 82" fill="none" xmlns="http://www.w3.org/2000/svg">
<rect width="132" height="82" rx="3.75" fill="#E9E8EE"/>
<rect x="55" y="45" width="69.4" height="3.64444" rx="1" fill="#C6C2D4"/>
<rect x="55" y="55.9333" width="69.4" height="3.64444" rx="1" fill="#C6C2D4"/>
<rect x="55" y="15" width="69" height="5.46667" rx="1" fill="#C6C2D4"/>
<rect x="55" y="27.7556" width="69" height="5.46667" rx="1" fill="#C6C2D4"/>
<path d="M26.9002 20C18.9612 20 16.9102 25.3942 17.076 31.5114C17.2418 37.6287 16.2612 50.3438 16.2612 50.3438L26.8954 50.4157V20H26.9002Z" fill="#423433"/>
<path d="M22.5563 45.8525C20.24 48.1881 17.4311 49.2615 13.4379 49.8139C8.63474 50.4742 8 54.741 8 55.9267V61.505H26.9V45.8525H22.5563Z" fill="#EAE9E8"/>
<path d="M19.2686 32.9533C18.8092 31.3274 18.1839 31.3274 17.9186 31.7406C17.6534 32.1538 18.5723 33.7527 18.596 35.0597C18.6197 36.3622 19.0271 36.5598 19.5339 36.0838C20.0407 35.6077 19.2686 32.9533 19.2686 32.9533Z" fill="#EBCFB7"/>
<g style="mix-blend-mode:multiply">
<mask id="mask0_0_1" style="mask-type:luminance" maskUnits="userSpaceOnUse" x="20" y="46" width="7" height="8">
<path d="M26.9 46.1938H20.439V53.6765H26.9V46.1938Z" fill="white"/>
</mask>
<g mask="url(#mask0_0_1)">
<path d="M22.5563 46.1938L20.439 47.3257L25.6921 53.681L26.9 49.6118L22.5563 46.1938Z" fill="#DDDCDB"/>
</g>
</g>
<path d="M18.2126 48.6639C16.82 49.2029 15.2521 49.5622 13.4379 49.8092C8.63474 50.4695 8 54.7363 8 55.922V61.5003H20.4579L18.2126 48.6594V48.6639Z" fill="#896956"/>
<path d="M14.494 49.6477C14.3424 49.6747 14.1861 49.7016 14.0298 49.7241L15.9008 61.505H16.3745L14.494 49.6477Z" fill="#D39272"/>
<path d="M16.1333 49.3108C15.9817 49.3467 15.8301 49.3827 15.6738 49.4186L17.5922 61.5094H18.0659L16.1286 49.3108H16.1333Z" fill="#D39272"/>
<path d="M26.8999 20C34.8388 20 36.8899 25.3942 36.7194 31.5114C36.5536 37.6287 37.5341 50.3438 37.5341 50.3438L26.8999 50.4157V20Z" fill="#423433"/>
<path d="M31.2436 45.8525C33.5599 48.1881 36.3688 49.2615 40.362 49.8139C45.1652 50.4742 45.7952 54.741 45.7952 55.9267V61.505H26.8999V45.8525H31.2436Z" fill="#EAE9E8"/>
<path d="M26.8999 40.8311H22.4805V46.2522C22.4805 47.0561 23.8826 49.6117 26.8999 49.6117C29.9173 49.6117 31.3194 47.0606 31.3194 46.2522V40.8311H26.8999Z" fill="#EAC1A4"/>
<path d="M26.8997 23.7773C20.3818 23.7773 19.4155 28.2463 19.4155 33.7572C19.4155 39.2682 24.4271 43.7371 26.8997 43.7371C29.3724 43.7371 34.3839 39.4029 34.3839 33.7572C34.3839 28.1115 33.4176 23.7773 26.8997 23.7773Z" fill="#EBCFB7"/>
<path d="M34.5313 32.9533C34.9907 31.3274 35.616 31.3274 35.8813 31.7406C36.1465 32.1538 35.2276 33.7527 35.2039 35.0597C35.1802 36.3622 34.7728 36.5598 34.2613 36.0838C33.7544 35.6077 34.5265 32.9533 34.5265 32.9533" fill="#EBCFB7"/>
<g style="mix-blend-mode:multiply">
<mask id="mask1_0_1" style="mask-type:luminance" maskUnits="userSpaceOnUse" x="26" y="46" width="8" height="8">
<path d="M33.361 46.1938H26.8999V53.6765H33.361V46.1938Z" fill="white"/>
</mask>
<g mask="url(#mask1_0_1)">
<path d="M31.2436 46.1938L33.361 47.3257L28.1078 53.681L26.8999 49.6118L31.2436 46.1938Z" fill="#DDDCDB"/>
</g>
</g>
<path d="M22.4805 45.9062L20.439 47.3255L25.6921 53.3126L26.9 49.6116L22.4805 45.9062Z" fill="#F4F2F2"/>
<path d="M31.3199 45.9062L33.3614 47.3255L28.1083 53.3126L26.9004 49.6116L31.3199 45.9062Z" fill="#F4F2F2"/>
<path d="M27.4636 38.8909C27.132 38.8909 27.1415 38.9762 26.8999 38.9762C26.6583 38.9762 26.6678 38.8909 26.3362 38.8909C25.8531 38.8909 25.0146 39.6454 25.0146 39.6454H28.7852C28.7852 39.6454 27.9468 38.8909 27.4636 38.8909Z" fill="#FC9595"/>
<path d="M26.8999 39.6499H25.0146C25.0146 39.6499 25.0668 39.9374 25.3794 40.0496C26.1136 40.3236 25.7489 40.5527 26.8999 40.5527C28.051 40.5527 27.6862 40.3236 28.4204 40.0496C28.7331 39.9329 28.7852 39.6499 28.7852 39.6499H26.8999Z" fill="#EF5959"/>
<path d="M34.6918 24.8956C33.8913 21.7382 31.1013 20 26.8997 20C22.6981 20 19.9081 21.7382 19.1076 24.8956C17.9518 29.4589 19.4155 31.5159 19.5671 31.9291C19.5671 31.9291 26.8997 28.7088 26.8997 23.7728C26.8997 28.7088 34.2323 31.9291 34.2323 31.9291C34.3886 31.5159 35.8523 29.4589 34.6918 24.8956Z" fill="#423433"/>
<path d="M35.5872 48.6639C36.9798 49.2029 38.5477 49.5622 40.3619 49.8092C45.1698 50.4695 45.7998 54.7363 45.7998 55.922V61.5003H33.3467L35.5919 48.6594L35.5872 48.6639Z" fill="#7C5A49"/>
<path d="M39.3058 49.6477C39.4574 49.6747 39.6137 49.7016 39.77 49.7241L37.899 61.505H37.4253L39.3058 49.6477Z" fill="#D39272"/>
<path d="M37.667 49.3108C37.8186 49.3467 37.9702 49.3827 38.1265 49.4186L36.2081 61.5094H35.7344L37.6717 49.3108H37.667Z" fill="#D39272"/>
<path d="M34.9525 31.6416C34.9052 31.6101 33.8441 31.0352 32.3283 30.9364C30.8078 30.8376 29.3536 31.0352 28.4015 31.5652C27.4494 32.0952 27.2788 32.0458 26.8999 32.0458C26.5209 32.0458 26.3504 32.0907 25.3983 31.5652C24.4462 31.0352 22.992 30.8376 21.4715 30.9364C19.9509 31.0352 18.8946 31.6101 18.8473 31.6416C18.7999 31.673 18.8094 32.0009 18.8094 32.2075C18.8094 32.4141 18.8331 32.5892 18.9041 32.6611C18.9752 32.7285 19.3636 32.8542 19.5009 33.4201C19.6383 33.9861 19.9699 35.2032 20.8983 35.9174C21.8267 36.6315 22.8688 36.7842 24.1383 36.371C25.4078 35.9578 25.8578 34.9382 25.9573 34.7631C26.052 34.5879 26.3267 33.73 26.4499 33.5055C26.5683 33.2854 26.7104 33.1731 26.8999 33.1731C27.0894 33.1731 27.2315 33.2854 27.3499 33.5055C27.4731 33.7256 27.7478 34.5834 27.8425 34.7631C27.942 34.9382 28.392 35.9578 29.6615 36.371C30.9309 36.7842 31.9731 36.6315 32.9015 35.9174C33.8299 35.2032 34.1615 33.9861 34.2988 33.4201C34.4362 32.8542 34.8246 32.7285 34.8957 32.6611C34.9667 32.5937 34.9952 32.4141 34.9952 32.2075C34.9952 32.0009 35.0046 31.673 34.9525 31.6416ZM25.872 33.501C25.7536 34.5116 24.8157 36.2183 23.2099 36.2901C21.6041 36.362 20.5478 35.3919 20.1925 34.543C19.8373 33.6941 19.6762 32.3692 20.7941 31.8482C21.912 31.3272 23.5604 31.3272 24.7446 31.7583C25.9288 32.185 25.9431 32.8318 25.8625 33.5055L25.872 33.501ZM33.6025 34.543C33.2473 35.3919 32.1909 36.362 30.5852 36.2901C28.9794 36.2183 28.0415 34.5116 27.9231 33.501C27.8425 32.8273 27.8567 32.185 29.0409 31.7538C30.2252 31.3227 31.8736 31.3227 32.9962 31.8437C34.1141 32.3647 33.9531 33.6941 33.5978 34.5385L33.6025 34.543Z" fill="#703C22"/>
</svg>
