<svg width="165" height="107" viewBox="0 0 165 107" fill="none" xmlns="http://www.w3.org/2000/svg">
<path d="M1 86.3126V20.6874C1 9.81435 14.6833 1 31.5625 1H133.438C150.317 1 164 9.81435 164 20.6874V86.3126C164 97.1856 150.317 106 133.438 106H31.5625C14.6833 106 1 97.1856 1 86.3126Z" stroke="#D174CB" strokeWidth="2"/>
<rect x="17" y="14" width="132" height="82" rx="3.75" fill="#E9E8EE"/>
<rect x="72" y="59" width="69.4" height="3.64444" rx="1" fill="#C6C2D4"/>
<rect x="72" y="69.9333" width="69.4" height="3.64444" rx="1" fill="#C6C2D4"/>
<rect x="72" y="29" width="69" height="5.46667" rx="1" fill="#C6C2D4"/>
<rect x="72" y="41.7556" width="69" height="5.46667" rx="1" fill="#C6C2D4"/>
<path d="M43.9002 34C35.9612 34 33.9102 39.3942 34.076 45.5114C34.2418 51.6287 33.2612 64.3438 33.2612 64.3438L43.8954 64.4157V34H43.9002Z" fill="#423433"/>
<path d="M39.5563 59.8525C37.24 62.1881 34.4311 63.2615 30.4379 63.8139C25.6347 64.4742 25 68.741 25 69.9267V75.505H43.9V59.8525H39.5563Z" fill="#EAE9E8"/>
<path d="M36.2686 46.9533C35.8092 45.3274 35.1839 45.3274 34.9186 45.7406C34.6534 46.1538 35.5723 47.7527 35.596 49.0597C35.6197 50.3622 36.0271 50.5598 36.5339 50.0838C37.0407 49.6077 36.2686 46.9533 36.2686 46.9533Z" fill="#EBCFB7"/>
<g style="mix-blend-mode:multiply">
<mask id="mask0_414_1246" style="mask-type:luminance" maskUnits="userSpaceOnUse" x="37" y="60" width="7" height="8">
<path d="M43.9 60.1938H37.439V67.6765H43.9V60.1938Z" fill="white"/>
</mask>
<g mask="url(#mask0_414_1246)">
<path d="M39.5563 60.1938L37.439 61.3257L42.6921 67.681L43.9 63.6118L39.5563 60.1938Z" fill="#DDDCDB"/>
</g>
</g>
<path d="M35.2126 62.6639C33.82 63.2029 32.2521 63.5622 30.4379 63.8092C25.6347 64.4695 25 68.7363 25 69.922V75.5003H37.4579L35.2126 62.6594V62.6639Z" fill="#896956"/>
<path d="M31.494 63.6477C31.3424 63.6747 31.1861 63.7016 31.0298 63.7241L32.9008 75.505H33.3745L31.494 63.6477Z" fill="#D39272"/>
<path d="M33.1333 63.3108C32.9817 63.3467 32.8301 63.3827 32.6738 63.4186L34.5922 75.5094H35.0659L33.1286 63.3108H33.1333Z" fill="#D39272"/>
<path d="M43.8999 34C51.8388 34 53.8899 39.3942 53.7194 45.5114C53.5536 51.6287 54.5341 64.3438 54.5341 64.3438L43.8999 64.4157V34Z" fill="#423433"/>
<path d="M48.2436 59.8525C50.5599 62.1881 53.3688 63.2615 57.362 63.8139C62.1652 64.4742 62.7952 68.741 62.7952 69.9267V75.505H43.8999V59.8525H48.2436Z" fill="#EAE9E8"/>
<path d="M43.8999 54.8311H39.4805V60.2522C39.4805 61.0561 40.8826 63.6117 43.8999 63.6117C46.9173 63.6117 48.3194 61.0606 48.3194 60.2522V54.8311H43.8999Z" fill="#EAC1A4"/>
<path d="M43.8997 37.7773C37.3818 37.7773 36.4155 42.2463 36.4155 47.7572C36.4155 53.2682 41.4271 57.7371 43.8997 57.7371C46.3724 57.7371 51.3839 53.4029 51.3839 47.7572C51.3839 42.1115 50.4176 37.7773 43.8997 37.7773Z" fill="#EBCFB7"/>
<path d="M51.5313 46.9533C51.9907 45.3274 52.616 45.3274 52.8813 45.7406C53.1465 46.1538 52.2276 47.7527 52.2039 49.0597C52.1802 50.3622 51.7728 50.5598 51.2613 50.0838C50.7544 49.6077 51.5265 46.9533 51.5265 46.9533" fill="#EBCFB7"/>
<g style="mix-blend-mode:multiply">
<mask id="mask1_414_1246" style="mask-type:luminance" maskUnits="userSpaceOnUse" x="43" y="60" width="8" height="8">
<path d="M50.361 60.1938H43.8999V67.6765H50.361V60.1938Z" fill="white"/>
</mask>
<g mask="url(#mask1_414_1246)">
<path d="M48.2436 60.1938L50.361 61.3257L45.1078 67.681L43.8999 63.6118L48.2436 60.1938Z" fill="#DDDCDB"/>
</g>
</g>
<path d="M39.4805 59.9062L37.439 61.3255L42.6921 67.3126L43.9 63.6116L39.4805 59.9062Z" fill="#F4F2F2"/>
<path d="M48.3199 59.9062L50.3614 61.3255L45.1083 67.3126L43.9004 63.6116L48.3199 59.9062Z" fill="#F4F2F2"/>
<path d="M44.4636 52.8909C44.132 52.8909 44.1415 52.9762 43.8999 52.9762C43.6583 52.9762 43.6678 52.8909 43.3362 52.8909C42.8531 52.8909 42.0146 53.6454 42.0146 53.6454H45.7852C45.7852 53.6454 44.9468 52.8909 44.4636 52.8909Z" fill="#FC9595"/>
<path d="M43.8999 53.6499H42.0146C42.0146 53.6499 42.0668 53.9374 42.3794 54.0496C43.1136 54.3236 42.7489 54.5527 43.8999 54.5527C45.051 54.5527 44.6862 54.3236 45.4204 54.0496C45.7331 53.9329 45.7852 53.6499 45.7852 53.6499H43.8999Z" fill="#EF5959"/>
<path d="M51.6918 38.8956C50.8913 35.7382 48.1013 34 43.8997 34C39.6981 34 36.9081 35.7382 36.1076 38.8956C34.9518 43.4589 36.4155 45.5159 36.5671 45.9291C36.5671 45.9291 43.8997 42.7088 43.8997 37.7728C43.8997 42.7088 51.2323 45.9291 51.2323 45.9291C51.3886 45.5159 52.8523 43.4589 51.6918 38.8956Z" fill="#423433"/>
<path d="M52.5872 62.6639C53.9798 63.2029 55.5477 63.5622 57.3619 63.8092C62.1698 64.4695 62.7998 68.7363 62.7998 69.922V75.5003H50.3467L52.5919 62.6594L52.5872 62.6639Z" fill="#7C5A49"/>
<path d="M56.3058 63.6477C56.4574 63.6747 56.6137 63.7016 56.77 63.7241L54.899 75.505H54.4253L56.3058 63.6477Z" fill="#D39272"/>
<path d="M54.667 63.3108C54.8186 63.3467 54.9702 63.3827 55.1265 63.4186L53.2081 75.5094H52.7344L54.6717 63.3108H54.667Z" fill="#D39272"/>
<path d="M51.9525 45.6416C51.9052 45.6101 50.8441 45.0352 49.3283 44.9364C47.8078 44.8376 46.3536 45.0352 45.4015 45.5652C44.4494 46.0952 44.2788 46.0458 43.8999 46.0458C43.5209 46.0458 43.3504 46.0907 42.3983 45.5652C41.4462 45.0352 39.992 44.8376 38.4715 44.9364C36.9509 45.0352 35.8946 45.6101 35.8473 45.6416C35.7999 45.673 35.8094 46.0009 35.8094 46.2075C35.8094 46.4141 35.8331 46.5892 35.9041 46.6611C35.9752 46.7285 36.3636 46.8542 36.5009 47.4201C36.6383 47.9861 36.9699 49.2032 37.8983 49.9174C38.8267 50.6315 39.8688 50.7842 41.1383 50.371C42.4078 49.9578 42.8578 48.9382 42.9573 48.7631C43.052 48.5879 43.3267 47.73 43.4499 47.5055C43.5683 47.2854 43.7104 47.1731 43.8999 47.1731C44.0894 47.1731 44.2315 47.2854 44.3499 47.5055C44.4731 47.7256 44.7478 48.5834 44.8425 48.7631C44.942 48.9382 45.392 49.9578 46.6615 50.371C47.9309 50.7842 48.9731 50.6315 49.9015 49.9174C50.8299 49.2032 51.1615 47.9861 51.2988 47.4201C51.4362 46.8542 51.8246 46.7285 51.8957 46.6611C51.9667 46.5937 51.9952 46.4141 51.9952 46.2075C51.9952 46.0009 52.0046 45.673 51.9525 45.6416ZM42.872 47.501C42.7536 48.5116 41.8157 50.2183 40.2099 50.2901C38.6041 50.362 37.5478 49.3919 37.1925 48.543C36.8373 47.6941 36.6762 46.3692 37.7941 45.8482C38.912 45.3272 40.5604 45.3272 41.7446 45.7583C42.9288 46.185 42.9431 46.8318 42.8625 47.5055L42.872 47.501ZM50.6025 48.543C50.2473 49.3919 49.1909 50.362 47.5852 50.2901C45.9794 50.2183 45.0415 48.5116 44.9231 47.501C44.8425 46.8273 44.8567 46.185 46.0409 45.7538C47.2252 45.3227 48.8736 45.3227 49.9962 45.8437C51.1141 46.3647 50.9531 47.6941 50.5978 48.5385L50.6025 48.543Z" fill="#703C22"/>
</svg>
