<svg
width="49"
height="40"
viewBox="0 0 49 40"
fill="none"
xmlns="http://www.w3.org/2000/svg"
>
<path
    fillRule="evenodd"
    clipRule="evenodd"
    d="M48.026 5.95013C48.8588 9.03707 47.0318 12.2154 43.9449 13.0482C37.8853 14.6838 32.2628 17.6422 27.4831 21.7105C22.7035 25.7788 18.8851 30.857 16.3039 36.5781C14.9883 39.4922 11.5599 40.7892 8.64441 39.4736C5.73032 38.158 4.43326 34.7296 5.74889 31.8141C9.03438 24.5332 13.8941 18.0707 19.9765 12.8925C26.0589 7.7143 33.2142 3.94884 40.9279 1.86755C44.0149 1.03475 47.1932 2.86177 48.026 5.95013Z"
    fill="#FF3E51"
/>
<path
    fillRule="evenodd"
    clipRule="evenodd"
    d="M40.9052 13.0282C30.0273 10.1141 18.4381 11.6398 8.68593 17.2694C5.91612 18.8678 2.37493 17.9193 0.776466 15.1495C-0.821998 12.3797 0.126509 8.83852 2.89632 7.24005C15.3083 0.0733958 30.0588 -1.8679 43.9021 1.84185C46.9905 2.66893 48.8232 5.84443 47.9961 8.9328C47.169 12.024 43.9935 13.8567 40.9052 13.0282Z"
    fill="#FF8D02"
/>
<path
    fillRule="evenodd"
    clipRule="evenodd"
    d="M35.1715 33.7797C27.7192 33.704 20.3768 35.591 13.8844 39.2522C11.0989 40.8235 7.56768 39.8379 5.99636 37.0524C4.42504 34.2668 5.41069 30.7356 8.19621 29.1658C16.4585 24.5061 25.8022 22.1048 35.2887 22.2005C38.4856 22.2334 41.0526 24.8518 41.0197 28.0487C40.9883 31.2456 38.3699 33.8112 35.1715 33.7797Z"
    fill="#D817CA"
/>
</svg>